<svg xmlns="http://www.w3.org/2000/svg" viewBox="0 0 256 256" role="img" aria-labelledby="title">
  <title>Global Trade Tracker</title>
  <defs>
    <style>
      .bg { fill: #05070b; }
      .stroke { fill: none; stroke: #f5f7fa; stroke-linecap: round; stroke-linejoin: round; }
      .land { fill: #f5f7fa; }
    </style>
  </defs>
  <rect class="bg" width="256" height="256" rx="44" />
  <circle class="stroke" cx="128" cy="128" r="62" stroke-width="8" />
  <path class="stroke" d="M48 122c16-21 42-32 80-32 36 0 61 10 79 31" stroke-width="9" opacity="0.92" />
  <path class="stroke" d="M56 156c18 24 42 36 72 36 34 0 63-12 86-37" stroke-width="9" opacity="0.92" />
  <path class="stroke" d="M72 88c-14 12-22 25-22 40 0 15 8 29 25 42" stroke-width="8" opacity="0.88" />
  <path class="stroke" d="M184 82c15 12 22 25 22 39 0 14-7 28-22 41" stroke-width="8" opacity="0.88" />
  <path class="stroke" d="M195 119l14 3-8 11" stroke-width="8" />
  <path class="stroke" d="M143 187l-7 13 15-2" stroke-width="8" />
  <path class="stroke" d="M70 169l-14-1 8-11" stroke-width="8" />
  <path class="land" d="M104 83c-8 3-14 8-18 15l4 2 3-4 2 5-4 9 2 15 6 8 4-2 0-7 5-7 9-8 10 2 8-6 0-7-8-6-7 1-6-5-12-5z" opacity="0.96" />
  <path class="land" d="M93 133l-8 6 2 11 11 12 10 19 16 1-5-10 8-14-2-13-11-8-8-1-6-3-7 0z" opacity="0.96" />
  <path class="land" d="M148 89l-8 5 1 11 8 8 6-2 9 7 8 2 3-6-3-11-8-8-9-6-7 0z" opacity="0.96" />
  <path class="land" d="M157 122l-8 7 0 12 5 7-2 17 6 11 9-4 8-18-1-13-8-12-9-7z" opacity="0.96" />
</svg>
